<?xml version="1.0" encoding="utf-8"?>
<!-- Generator: Adobe Illustrator 24.0.1, SVG Export Plug-In . SVG Version: 6.00 Build 0)  -->
<svg version="1.1" id="Layer_1" xmlns="http://www.w3.org/2000/svg" xmlns:xlink="http://www.w3.org/1999/xlink" x="0px" y="0px"
	 viewBox="0 0 100 100" style="enable-background:new 0 0 100 100;" xml:space="preserve">
<style type="text/css">
	.st0{display:none;}
	.st1{display:inline;fill:#D9CB9E;}
	.st2{display:none;fill:#D9CB9E;}
	.st3{font-family:'BerlinSansFB-Reg';}
	.st4{font-size:72px;}
	.st5{fill:#D29617;}
</style>
<g id="LogIn" class="st0">
	<path id="Body" class="st1" d="M50,1C22.94,1,1,22.94,1,50c0,27.06,21.94,49,49,49s49-21.94,49-49C99,22.94,77.06,1,50,1z
		 M49.84,5.9c24.36,0,44.1,19.74,44.1,44.1c0,3.61-0.44,7.12-1.26,10.48C88.21,49.61,74.3,44.21,60.9,53.63
		c-6.26,4.4-14.54,4.44-20.77-0.01c-10.54-7.53-27.46-5.89-32.3,9.84c-1.36-4.24-2.1-8.76-2.1-13.45C5.74,25.64,25.48,5.9,49.84,5.9
		z"/>
	<circle id="head" class="st1" cx="49.5" cy="29.5" r="16.5"/>
</g>
<path id="instagram" class="st2" d="M68.77,20.25H31.23c-6.04,0-10.98,4.94-10.98,10.98v37.53c0,6.04,4.94,10.98,10.98,10.98h37.53
	c6.04,0,10.98-4.94,10.98-10.98V31.23C79.75,25.19,74.81,20.25,68.77,20.25z M69.68,24.83c3.03,0,5.49,2.46,5.49,5.49
	s-2.46,5.49-5.49,5.49c-3.03,0-5.49-2.46-5.49-5.49S66.65,24.83,69.68,24.83z M63.12,39.93c2.38,2.86,3.81,6.53,3.81,10.53
	c0,9.09-7.39,16.48-16.48,16.48c-9.09,0-16.48-7.39-16.48-16.48c0-4,1.44-7.67,3.81-10.53H63.12z M76.55,64.65
	c0,6.04-4.94,10.98-10.98,10.98H34.44c-6.04,0-10.98-4.94-10.98-10.98V39.93h10.94c-1.99,3.03-3.16,6.64-3.16,10.53
	c0,10.6,8.62,19.22,19.22,19.22c10.6,0,19.22-8.62,19.22-19.22c0-3.89-1.17-7.5-3.16-10.53h10.02V64.65z"/>
<path id="youtube" class="st2" d="M73.61,29H26.39C20.4,29,15.5,34.4,15.5,41v18c0,6.6,4.9,12,10.89,12h47.21
	c5.99,0,10.89-5.4,10.89-12V41C84.5,34.4,79.6,29,73.61,29z M51.4,55.15l-9.5,5.21L41.87,50l-0.03-10.36l9.53,5.15l9.53,5.15
	L51.4,55.15z"/>
<path id="twitter" class="st2" d="M77,28c-2.73,1.46-5.4,2.5-8,3c-8-9-22,0-19,10c-10.65-0.05-18.11-4.85-24-12
	c-2.92,5.85-2.56,11.3,4,16c-2.39-0.23-4.46-0.82-6-2c1.05,6.44,3.76,10.51,9,11c-0.42,1.03-2.5,1.14-5,1c2.33,5.01,5.9,7.85,11,8
	c-4.73,3.39-10.11,5.61-17,5c28,14,51-6,50-29c2.29-1.73,4.38-3.64,6-6c-2.26,0.68-4.33,1.1-6,1C73.87,32.7,75.51,30.62,77,28z"/>
<text id="facebook" transform="matrix(1 0 0 1 39.1287 73.0173)" class="st2 st3 st4">f</text>
<path id="Pinterest" class="st2" d="M35.68,54.39c-0.24,0.84-1.19,1.29-2,0.96c-9.59-3.89-10.1-17.97-1.52-27.5c8-9,26-11,35-2
	c13,11,5,34-5,37c-6.47,2.37-11.98,2.17-16-2l-3,11c-2,4-4.11,7.62-5,8c-2.37,1.01-2.3-4.19-2-10l2-9l3-13c-2-3-1.23-8.55,1-12
	c3-4,11-3,9,6c-0.25,2.02-0.75,3.85-2,7c-2,5-0.42,8.02,3,9c5.32,1.37,8.97-2.78,11-7c2.9-8.1,3.2-15.05-1-20c-6-5-15.35-6.35-22-1
	c-5.57,4.64-8.34,14.38-4.9,19.02c0.71,0.96,0.96,2.18,0.83,3.37C36,53,35.87,53.72,35.68,54.39z"/>
<path id="Circle" class="st2" d="M50,1C22.94,1,1,22.94,1,50s21.94,49,49,49s49-21.94,49-49S77.06,1,50,1z M50,94
	C25.7,94,6,74.3,6,50S25.7,6,50,6s44,19.7,44,44S74.3,94,50,94z"/>
<g id="Search" class="st0">
	<path class="st1" d="M96.42,89.72L64.74,58.03c-0.16-0.16-0.33-0.28-0.51-0.41c4.57-5.85,7.3-13.21,7.3-21.21
		c0-19.05-15.45-34.5-34.5-34.5s-34.5,15.45-34.5,34.5s15.45,34.5,34.5,34.5c7.84,0,15.06-2.62,20.85-7.02
		c0.14,0.19,0.28,0.38,0.45,0.55l31.68,31.68c1.66,1.66,4.38,1.66,6.04,0l0.36-0.37C98.08,94.1,98.08,91.38,96.42,89.72z
		 M37.03,62.85c-14.6,0-26.44-11.84-26.44-26.44c0-14.6,11.84-26.44,26.44-26.44c14.6,0,26.44,11.84,26.44,26.44
		C63.47,51.02,51.63,62.85,37.03,62.85z"/>
</g>
<path id="Exit" class="st2" d="M62.23,49.7l30.04-30.04c3.5-3.5,3.5-9.23,0-12.73s-9.23-3.5-12.73,0L49.5,36.97L19.47,6.94
	c-3.5-3.5-9.23-3.5-12.73,0v0c-3.5,3.5-3.5,9.23,0,12.73L36.77,49.7L6.74,79.74c-3.5,3.5-3.5,9.23,0,12.73s9.23,3.5,12.73,0
	L49.5,62.43l30.04,30.04c3.5,3.5,9.23,3.5,12.73,0s3.5-9.23,0-12.73L62.23,49.7z"/>
<g id="Menu">
	<path class="st5" d="M89.29,58.97H11.42c-4.71,0-8.57-3.85-8.57-8.57v0c0-4.71,3.85-8.57,8.57-8.57h77.87
		c4.71,0,8.57,3.85,8.57,8.57v0C97.86,55.11,94,58.97,89.29,58.97z"/>
	<path class="st5" d="M89.29,87.97H11.42c-4.71,0-8.57-3.85-8.57-8.57v0c0-4.71,3.85-8.57,8.57-8.57h77.87
		c4.71,0,8.57,3.85,8.57,8.57v0C97.86,84.11,94,87.97,89.29,87.97z"/>
	<path class="st5" d="M89.29,29.97H11.42c-4.71,0-8.57-3.85-8.57-8.57v0c0-4.71,3.85-8.57,8.57-8.57h77.87
		c4.71,0,8.57,3.85,8.57,8.57v0C97.86,26.11,94,29.97,89.29,29.97z"/>
</g>
</svg>
